<svg xmlns="http://www.w3.org/2000/svg" width="16.041" height="16" viewBox="243.459 303 16.041 16"><path d="m259.48 317.16-1.12-8c-.08-.8-.8-1.36-1.6-1.36h-1.28v-.8c0-2.4-1.76-4-4-4s-4 1.76-4 4v.8h-1.04c-.8 0-1.68.56-1.84 1.36l-1.12 8c-.16.96.64 1.84 1.6 1.84h12.8c.96 0 1.76-.88 1.6-1.84ZM249.08 307c0-1.36 1.04-2.4 2.4-2.4 1.36 0 2.4.8 2.4 2.4v.8h-4.8v-.8Zm7.84 10.4h-10.88c-.48 0-.88-.4-.8-.88l.88-6.4c.08-.4.4-.72.8-.72h.56v1.6c0 .48.32.8.8.8.48 0 .8-.32.8-.8v-1.6h4.8v1.6c0 .48.32.8.8.8.48 0 .8-.32.8-.8v-1.6h.56c.4 0 .72.32.8.72l.88 6.4c.08.48-.24.88-.8.88Z" fill="#db9351" fill-rule="evenodd" data-name="shopping_x5F_cart_2_"/></svg>