<svg xmlns="http://www.w3.org/2000/svg" width="16" height="15.946" viewBox="1762.999 4065.999 16 15.946"><path d="M1773.955 4074.515c1.278-1.04 1.998-2.637 1.758-4.475-.32-2.077-2.077-3.755-4.155-3.995-2.956-.4-5.353 1.838-5.353 4.714 0 1.518.72 2.877 1.758 3.756-2.717 1.038-4.634 3.355-4.954 6.551-.08.48.32.879.8.879.399 0 .718-.32.798-.72.32-3.594 3.036-5.672 6.392-5.672 3.276 0 6.072 2.078 6.392 5.673 0 .4.4.719.799.719.48 0 .879-.4.799-.879-.4-3.196-2.317-5.593-5.034-6.551Zm-2.956-.56a3.205 3.205 0 0 1-3.196-3.196 3.205 3.205 0 0 1 3.196-3.196 3.205 3.205 0 0 1 3.196 3.196 3.205 3.205 0 0 1-3.196 3.196Z" fill="#fff" fill-rule="evenodd" data-name="profile_1_"/></svg>